<?xml version="1.0" encoding="UTF-8"?>
<svg xmlns="http://www.w3.org/2000/svg" xmlns:xlink="http://www.w3.org/1999/xlink" viewBox="0 0 128 128" width="128px" height="128px">
<g id="surface52776158">
<path style=" stroke:none;fill-rule:nonzero;fill:rgb(100%,86.666667%,46.666667%);fill-opacity:1;" d="M 94 78 L 14 78 C 14 55.898438 31.898438 48 54 48 C 76.101562 48 94 55.898438 94 78 Z M 94 78 "/>
<path style=" stroke:none;fill-rule:nonzero;fill:rgb(100%,65.882355%,41.176471%);fill-opacity:1;" d="M 70.101562 49.699219 C 70.300781 49.898438 70.398438 50 70.601562 50.199219 C 76.601562 57.800781 70.800781 69 61.101562 69 L 39.601562 69 C 37.101562 69 35.101562 71 35.101562 73.5 C 35.101562 76 37.101562 78 39.601562 78 L 94 78 C 94 61.601562 84.199219 53.101562 70.101562 49.699219 Z M 70.101562 49.699219 "/>
<path style=" stroke:none;fill-rule:nonzero;fill:rgb(100%,86.666667%,46.666667%);fill-opacity:1;" d="M 84 124 L 24 124 C 18.5 124 14 119.5 14 114 L 14 106 L 94 106 L 94 114 C 94 119.5 89.5 124 84 124 Z M 84 124 "/>
<path style=" stroke:none;fill-rule:nonzero;fill:rgb(100%,65.882355%,41.176471%);fill-opacity:1;" d="M 70.898438 106 C 70.398438 111.101562 66.101562 115 61 115 L 38.5 115 C 36 115 34 117 34 119.5 C 34 122 36 124 38.5 124 L 84 124 C 89.5 124 94 119.5 94 114 L 94 106 Z M 70.898438 106 "/>
<path style=" stroke:none;fill-rule:nonzero;fill:rgb(100%,100%,100%);fill-opacity:1;" d="M 94.5 106 L 13.5 106 C 9.398438 106 6 102.601562 6 98.5 C 6 94.398438 9.398438 91 13.5 91 L 94.5 91 C 98.601562 91 102 94.398438 102 98.5 C 102 102.601562 98.601562 106 94.5 106 Z M 94.5 106 "/>
<path style=" stroke:none;fill-rule:nonzero;fill:rgb(100%,100%,100%);fill-opacity:1;" d="M 94.5 91 L 64.5 91 C 68.601562 91 72 94.398438 72 98.5 C 72 102.601562 68.601562 106 64.5 106 L 94.5 106 C 98.601562 106 102 102.601562 102 98.5 C 102 94.398438 98.601562 91 94.5 91 Z M 94.5 91 "/>
<path style=" stroke:none;fill-rule:nonzero;fill:rgb(100%,100%,100%);fill-opacity:1;" d="M 14 78 L 14 88 L 44 88 L 44 91 L 70 105 L 94 91 L 94 78 Z M 14 78 "/>
<path style=" stroke:none;fill-rule:nonzero;fill:rgb(100%,86.666667%,46.666667%);fill-opacity:1;" d="M 79.300781 99.601562 L 94 91 L 94 88 L 76.199219 88 C 72.800781 88 70 90.800781 70 94.199219 C 70 99 75.199219 102 79.300781 99.601562 Z M 79.300781 99.601562 "/>
<path style=" stroke:none;fill-rule:nonzero;fill:rgb(100%,100%,100%);fill-opacity:1;" d="M 63 57 C 61.34375 57 60 58.34375 60 60 C 60 61.65625 61.34375 63 63 63 C 64.65625 63 66 61.65625 66 60 C 66 58.34375 64.65625 57 63 57 Z M 29 66 C 27.34375 66 26 67.34375 26 69 C 26 70.65625 27.34375 72 29 72 C 30.65625 72 32 70.65625 32 69 C 32 67.34375 30.65625 66 29 66 Z M 42 56 C 40.34375 56 39 57.34375 39 59 C 39 60.65625 40.34375 62 42 62 C 43.65625 62 45 60.65625 45 59 C 45 57.34375 43.65625 56 42 56 Z M 42 56 "/>
<path style=" stroke:none;fill-rule:nonzero;fill:rgb(24.705882%,29.019609%,32.941177%);fill-opacity:1;" d="M 94 81 C 92.300781 81 91 79.699219 91 78 C 91 55.699219 70.898438 51 54 51 C 37.101562 51 17 55.699219 17 78 C 17 79.699219 15.699219 81 14 81 C 12.300781 81 11 79.699219 11 78 C 11 56.699219 26.300781 45 54 45 C 81.699219 45 97 56.699219 97 78 C 97 79.699219 95.699219 81 94 81 Z M 104 121 L 94.898438 121 C 96.199219 119 97 116.601562 97 114 L 97 108.699219 C 101.601562 107.601562 105 103.398438 105 98.5 C 105 92.699219 100.300781 88 94.5 88 C 94.398438 88 94.300781 88 94.300781 88 C 93.699219 87.898438 93 88.101562 92.398438 88.398438 L 69.898438 102.398438 L 45.5 88.398438 C 45 88.101562 44.5 88 44 88 L 14 88 C 13.898438 88 13.800781 88 13.800781 88 C 13.699219 88 13.601562 88 13.601562 88 C 7.699219 88 3 92.699219 3 98.5 C 3 103.398438 6.398438 107.601562 11 108.699219 L 11 114 C 11 121.199219 16.800781 127 24 127 L 104 127 C 105.699219 127 107 125.699219 107 124 C 107 122.300781 105.699219 121 104 121 Z M 24 121 C 20.101562 121 17 117.898438 17 114 L 17 106 C 17 104.300781 15.699219 103 14 103 C 13.898438 103 13.800781 103 13.800781 103 C 13.699219 103 13.601562 103 13.601562 103 C 11 103 9 101 9 98.5 C 9 96 11 94 13.5 94 C 13.601562 94 13.699219 94 13.699219 94 C 13.800781 94 13.898438 94 13.898438 94 L 43.101562 94 L 68.398438 108.601562 C 68.898438 108.898438 69.398438 109 69.898438 109 C 70.5 109 71 108.800781 71.5 108.5 L 94.800781 94 C 97.101562 94.199219 99 96.101562 99 98.5 C 99 101 97 103 94.5 103 C 94.398438 103 94.300781 103 94.300781 103 C 94.199219 103 94.101562 103 94.101562 103 C 92.398438 103 91.101562 104.300781 91.101562 106 L 91.101562 114 C 91.101562 117.898438 88 121 84.101562 121 Z M 119 121 C 117.34375 121 116 122.34375 116 124 C 116 125.65625 117.34375 127 119 127 C 120.65625 127 122 125.65625 122 124 C 122 122.34375 120.65625 121 119 121 Z M 119 121 "/>
</g>
</svg>
